<svg xmlns="http://www.w3.org/2000/svg" xmlns:xlink="http://www.w3.org/1999/xlink" width="236" height="30.024" viewBox="0 0 236 30.024">
  <defs>
    <clipPath id="clip-path">
      <rect id="사각형_320" data-name="사각형 320" width="236" height="30.024" fill="none"/>
    </clipPath>
  </defs>
  <g id="CI" clip-path="url(#clip-path)">
    <path id="패스_268" data-name="패스 268" d="M8.9,29.815V21.577a10.792,10.792,0,0,1-5.754-2.662A10.05,10.05,0,0,1,.039,10.507,10.838,10.838,0,0,1,3.733,3.256,13.451,13.451,0,0,1,13.193,0,15.213,15.213,0,0,1,28.6,14.971a14.669,14.669,0,0,1-4.335,10.406,16.559,16.559,0,0,1-12.087,4.647h0c-1.453,0-3.01-.191-3.28-.209m3.8-22.6c4.608.195,7.482,3.022,7.352,7.23-.116,3.79-2.956,6.594-7.234,7.15-.441.057-.882.095-1.317.115v5.8c.238.008.476.013.705.013a13.981,13.981,0,0,0,10.206-3.876,12.226,12.226,0,0,0,3.616-8.677A12.674,12.674,0,0,0,13.193,2.5h-.205C6.316,2.6,2.946,6.823,2.635,10.7a7.6,7.6,0,0,0,2.3,6.372A7.97,7.97,0,0,0,8.9,19.006V7.282a32.2,32.2,0,0,1,3.8-.07m-1.2,2.5v9.457c.32-.014.646-.046.971-.086,2.342-.3,4.881-1.7,4.974-4.714.087-2.813-1.684-4.5-4.855-4.628-.379-.015-.719-.023-1.09-.029" transform="translate(0 0)" fill="#fff"/>
    <path id="패스_269" data-name="패스 269" d="M310.492,11.878a5.424,5.424,0,0,1,3.848,1.383l-.029-1.972a12.249,12.249,0,0,0-4.29-.681c-5.36,0-9.169,3.656-9.169,8.524s3.455,8.828,10.081,8.828a9.588,9.588,0,0,0,3.017-.381l.332-1.266a8.651,8.651,0,0,1-2.875.53c-4.257,0-7.394-2.771-7.482-7.208,0-4.146,2.4-7.492,6.568-7.757" transform="translate(-120.401 -4.246)" fill="#fff"/>
    <path id="패스_270" data-name="패스 270" d="M348.466,13.288h.164c.252-.756.6-.957,1.671-.957h2.073V27.8h2.988V12.331h2.069c1.08,0,1.425.2,1.676.957h.16V11.122h-10.8Z" transform="translate(-139.457 -4.451)" fill="#fff"/>
    <path id="패스_271" data-name="패스 271" d="M381.39,11.122v.185a.871.871,0,0,1,.713,1.266l-3.069,5.879-3.552-7.33h-3.956v.185c.794.122,1.115.936,1.527,1.7l3.791,7.17V27.8h2.986V20.18l4.855-9.058Z" transform="translate(-148.686 -4.451)" fill="#fff"/>
    <path id="패스_272" data-name="패스 272" d="M241.775,16.92c-1.76-1.143-2.1-1.69-2.063-2.713a2.7,2.7,0,0,1,2.5-2.339,4.684,4.684,0,0,1,3.977,1.272V11.306a9.732,9.732,0,0,0-5.511-.3,4.879,4.879,0,0,0-3.5,2.729,3.787,3.787,0,0,0,.48,3.737,24.531,24.531,0,0,0,4.4,3.316c1.239.8,2.433,1.71,2.373,3.416-.044,1.321-1.369,2.817-3.957,2.488a5.585,5.585,0,0,1-3.755-2.21v2.212c2.039,1.287,5.807,1.928,8.433.154a4.4,4.4,0,0,0,1.783-5.591c-.737-1.646-3.4-3.191-5.159-4.334" transform="translate(-94.735 -4.299)" fill="#fff"/>
    <path id="패스_273" data-name="패스 273" d="M94.565,11.123v.186c1.02.169.824,1.1.608,1.618L89.273,27.8h1.482l2.393-6.2h6.358l1.977,5.171a1.518,1.518,0,0,0,1.588,1.035h2.017l-6.565-16.68ZM93.5,20.611l2.825-7.4,2.813,7.4Z" transform="translate(-35.727 -4.452)" fill="#fff"/>
    <path id="패스_274" data-name="패스 274" d="M156.61,11.123v.186c1.02.169.822,1.1.606,1.618l-5.9,14.876H152.8l2.4-6.2h6.355l1.979,5.171a1.518,1.518,0,0,0,1.587,1.035h2.019l-6.567-16.68Zm-1.066,9.488,2.823-7.4,2.817,7.4Z" transform="translate(-60.557 -4.452)" fill="#fff"/>
    <path id="패스_275" data-name="패스 275" d="M219.576,11.309a1.415,1.415,0,0,1,1.113,1.533V27.8h3V11.122h-4.111Z" transform="translate(-87.875 -4.451)" fill="#fff"/>
    <path id="패스_276" data-name="패스 276" d="M331.652,11.309a1.416,1.416,0,0,1,1.114,1.533V27.8h3V11.122h-4.111Z" transform="translate(-132.728 -4.451)" fill="#fff"/>
    <path id="패스_277" data-name="패스 277" d="M266.179,19.55h6.5V18.485h-6.5V12.11h6.782v-.988H262.067v.187a1.419,1.419,0,0,1,1.116,1.533V27.8l10.47,0V26.737h-7.473Z" transform="translate(-104.88 -4.451)" fill="#fff"/>
    <path id="패스_278" data-name="패스 278" d="M191.682,11.122h-7.547v.187a1.4,1.4,0,0,1,1.112,1.431V27.8h5.689c7.926,0,9.63-5.419,9.63-8.6,0-4.827-4.05-8.077-8.885-8.077m-.652,15.727h-2.784V12.106h2.43c4.4,0,6.964,2.758,6.964,7.355s-3.234,7.388-6.61,7.388" transform="translate(-73.691 -4.451)" fill="#fff"/>
    <path id="패스_279" data-name="패스 279" d="M134.764,15.443c0-2.044-1.466-4.314-5.063-4.314h-7.326v.182a1.41,1.41,0,0,1,1.115,1.5V27.806h3V19.949h1.528l4.113,6.811a2.234,2.234,0,0,0,1.919,1.047H136.3l-5.155-8.168c1.99-.594,3.617-2.03,3.617-4.195m-6.444,3.571h-1.832v-6.9h1.939a3.246,3.246,0,0,1,3.464,3.3,3.3,3.3,0,0,1-3.571,3.6" transform="translate(-48.975 -4.454)" fill="#fff"/>
    <path id="패스_280" data-name="패스 280" d="M72.244,11.122H65.288v.187A1.418,1.418,0,0,1,66.4,12.842V27.8h3V19.985h2.178c2.8,0,5.73-1.648,5.73-4.554,0-2.045-1.467-4.31-5.065-4.31M70.865,19H69.4v-6.9h1.57a3.246,3.246,0,0,1,3.466,3.3A3.3,3.3,0,0,1,70.865,19" transform="translate(-26.128 -4.451)" fill="#fff"/>
  </g>
</svg>
